<svg height="300px" width="300px" fill="#000000" xmlns="http://www.w3.org/2000/svg" xmlns:xlink="http://www.w3.org/1999/xlink" version="1.1" x="0px" y="0px" viewBox="0 0 512 512" style="enable-background:new 0 0 512 512;" xml:space="preserve"><g><path d="M411,113.25H101c-16.542,0-30,13.458-30,30v146.507c0,16.542,13.458,30,30,30h147.856c2.298,0,4.526,0.792,6.309,2.241   L336,387.73v-57.973c0-5.523,4.478-10,10-10h65c16.542,0,30-13.458,30-30V143.25C441,126.708,427.542,113.25,411,113.25z    M121.982,154.232h115.285c5.522,0,10,4.477,10,10s-4.478,10-10,10H121.982c-5.522,0-10-4.477-10-10   S116.46,154.232,121.982,154.232z M390.018,278.774H121.982c-5.522,0-10-4.477-10-10s4.478-10,10-10h268.035   c5.522,0,10,4.477,10,10S395.54,278.774,390.018,278.774z M390.018,226.503H121.982c-5.522,0-10-4.477-10-10s4.478-10,10-10   h268.035c5.522,0,10,4.477,10,10S395.54,226.503,390.018,226.503z"/></g></svg>