<?xml version="1.0" encoding="UTF-8" standalone="no"?>
<svg xmlns:dc="http://purl.org/dc/elements/1.1/" xmlns:cc="http://creativecommons.org/ns#" xmlns:rdf="http://www.w3.org/1999/02/22-rdf-syntax-ns#" xmlns:svg="http://www.w3.org/2000/svg" xmlns="http://www.w3.org/2000/svg" xmlns:sodipodi="http://sodipodi.sourceforge.net/DTD/sodipodi-0.dtd" xmlns:inkscape="http://www.inkscape.org/namespaces/inkscape" enable-background="new 0 0 24 24" height="23.739" id="Layer_1" version="1.1" viewBox="0 0 24.656 23.739" width="24.656" xml:space="preserve" sodipodi:docname="ico-linkedin.svg" inkscape:version="0.92.3 (2405546, 2018-03-11)"><metadata id="metadata15"><rdf:RDF><cc:Work rdf:about=""><dc:format>image/svg+xml</dc:format><dc:type rdf:resource="http://purl.org/dc/dcmitype/StillImage"/><dc:title/></cc:Work></rdf:RDF></metadata><defs id="defs13"/><sodipodi:namedview pagecolor="#ffffff" bordercolor="#666666" borderopacity="1" objecttolerance="10" gridtolerance="10" guidetolerance="10" inkscape:pageopacity="0" inkscape:pageshadow="2" inkscape:window-width="1912" inkscape:window-height="992" id="namedview11" showgrid="false" fit-margin-top="0" fit-margin-left="0" fit-margin-right="0" fit-margin-bottom="0" inkscape:zoom="9.8333333" inkscape:cx="12.633085" inkscape:cy="11.87" inkscape:window-x="0" inkscape:window-y="25" inkscape:window-maximized="0" inkscape:current-layer="Layer_1"/><g id="g8" style="fill:#25396f;fill-opacity:1;stroke:#253965;stroke-width:0.69999999;stroke-miterlimit:4;stroke-dasharray:none;stroke-opacity:1" transform="translate(0.32799999,-0.13100001)"><g id="g6" style="fill:#25396f;fill-opacity:1;stroke:#253965;stroke-width:0.69999999;stroke-miterlimit:4;stroke-dasharray:none;stroke-opacity:1"><g id="g4" style="fill:#25396f;fill-opacity:1;stroke:#253965;stroke-width:0.69999999;stroke-miterlimit:4;stroke-dasharray:none;stroke-opacity:1"><path d="M 23.978,23.52 H 16.81 v -8.115 c 0,-1.922 -0.623,-1.922 -0.89,-1.922 -1.061,0 -1.177,1.369 -1.177,1.957 v 8.08 H 8.287 V 8.496 h 6.409 c 0.779,-0.471 1.834,-0.732 3.006,-0.732 0.75,0 2.642,0.138 4.015,1.419 1.459,1.359 2.261,3.46 2.261,5.915 z m -6.393,-0.776 h 5.618 v -7.646 c 0,-2.237 -0.716,-4.137 -2.015,-5.348 -1.172,-1.093 -2.829,-1.211 -3.486,-1.211 -1.313,0 -2.436,0.356 -3.076,0.978 L 13.97,10.155 V 9.271 L 9.062,9.289 v 13.455 h 4.908 v -7.305 c 0,-1.711 0.729,-2.732 1.95,-2.732 1.12,0 1.665,0.882 1.665,2.697 z M 7.189,23.52 H 0.022 V 8.496 H 7.189 Z M 0.797,22.744 H 6.414 V 9.271 L 0.797,9.289 Z M 3.605,7.649 c -1.976,0 -3.583,-1.608 -3.583,-3.585 0,-1.976 1.607,-3.583 3.583,-3.583 1.976,0 3.583,1.607 3.583,3.583 0.001,1.977 -1.606,3.585 -3.583,3.585 z m 0,-6.393 c -1.549,0 -2.809,1.26 -2.809,2.808 0,1.549 1.26,2.81 2.809,2.81 1.549,0 2.809,-1.26 2.809,-2.81 0,-1.548 -1.26,-2.808 -2.809,-2.808 z" id="path2" inkscape:connector-curvature="0" style="fill:#25396f;fill-opacity:1;stroke:#253965;stroke-width:0.69999999;stroke-miterlimit:4;stroke-dasharray:none;stroke-opacity:1"/></g></g></g></svg>