<?xml version="1.0" encoding="UTF-8" standalone="no"?>
<svg xmlns:dc="http://purl.org/dc/elements/1.1/" xmlns:cc="http://creativecommons.org/ns#" xmlns:rdf="http://www.w3.org/1999/02/22-rdf-syntax-ns#" xmlns:svg="http://www.w3.org/2000/svg" xmlns="http://www.w3.org/2000/svg" id="svg4999" version="1.1" viewBox="0 0 6.9066749 5.8658547" height="5.8658547mm" width="6.9066749mm">
  <defs id="defs4993">
    <clipPath id="clipPath3380" clipPathUnits="userSpaceOnUse">
      <path id="path3378" d="m 1253.058,105.0078 c 0.145,0.499 -0.021,1.0385 -0.424,1.3633 -0.228,0.1854 -0.505,0.2788 -0.785,0.2788 -0.221,0 -0.443,-0.0586 -0.641,-0.1791 -0.395,-0.235 -0.808,-0.4236 -1.239,-0.5567 -0.824,0.6397 -1.846,0.9957 -2.896,0.9957 -2.407,0 -4.401,-1.8226 -4.716,-4.1793 -1.919,0.4169 -3.667,1.4901 -4.927,3.0582 -0.24,0.3005 -0.6,0.4719 -0.976,0.4719 -0.031,0 -0.065,-0.002 -0.098,-0.004 -0.413,-0.0329 -0.781,-0.2689 -0.99,-0.6307 -0.423,-0.7358 -0.646,-1.5749 -0.646,-2.4298 0,-0.5774 0.101,-1.1391 0.288,-1.6637 -0.201,-0.2319 -0.317,-0.5324 -0.317,-0.8499 0,-1.26681 0.471,-2.43162 1.256,-3.30681 -0.049,-0.21835 -0.041,-0.44933 0.029,-0.67038 0.272,-0.86346 0.769,-1.60646 1.412,-2.17353 -0.418,-0.09609 -0.85,-0.14526 -1.288,-0.14526 -0.227,0 -0.457,0.01488 -0.688,0.0415 -0.049,0.0063 -0.098,0.0095 -0.148,0.0095 -0.527,0 -1.004,-0.33473 -1.184,-0.85037 -0.198,-0.5594 0.012,-1.18512 0.504,-1.50677 1.81,-1.17609 3.9,-1.7982 6.046,-1.7982 6.958,0 11.139,5.68421 11.214,11.23265 0.566,0.4895 1.064,1.0529 1.486,1.6818 0.16,0.2138 0.254,0.4795 0.254,0.7705 0,0.4281 -0.208,0.808 -0.526,1.0412 z m -2.484,-2.8804 c 0.01,-0.1521 0.011,-0.3054 0.011,-0.4593 0,-4.69351 -3.519,-10.10524 -9.955,-10.10524 -1.976,0 -3.815,0.58782 -5.365,1.59564 0.273,-0.03068 0.553,-0.05008 0.835,-0.05008 1.64,0 3.148,0.56842 4.346,1.52166 -1.533,0.02751 -2.824,1.05563 -3.27,2.46631 0.214,-0.0415 0.434,-0.06451 0.657,-0.06451 0.32,0 0.63,0.04421 0.923,0.12496 -1.601,0.32797 -2.808,1.76166 -2.808,3.48406 0,0.0153 0,0.0293 0,0.0442 0.472,-0.2653 1.012,-0.4249 1.585,-0.443 -0.938,0.637 -1.555,1.7251 -1.555,2.9567 0,0.6505 0.172,1.26 0.474,1.7847 1.724,-2.1488 4.303,-3.5621 7.212,-3.7101 -0.061,0.2589 -0.09,0.5314 -0.09,0.8098 0,1.9597 1.566,3.5499 3.498,3.5499 1.007,0 1.916,-0.4313 2.555,-1.1202 0.796,0.1584 1.545,0.4539 2.221,0.8612 -0.261,-0.8287 -0.816,-1.5248 -1.538,-1.9642 0.707,0.0848 1.381,0.2757 2.009,0.5594 -0.468,-0.7159 -1.06,-1.3412 -1.745,-1.8419 z"/>
    </clipPath>
    <clipPath id="clipPath3386" clipPathUnits="userSpaceOnUse">
      <path id="path3384" d="M 0,0 H 1440 V 2581 H 0 Z"/>
    </clipPath>
  </defs>
  <metadata id="metadata4996">
    <rdf:RDF>
      <cc:Work rdf:about="">
        <dc:format>image/svg+xml</dc:format>
        <dc:type rdf:resource="http://purl.org/dc/dcmitype/StillImage"/>
        <dc:title/>
      </cc:Work>
    </rdf:RDF>
  </metadata>
  <g transform="translate(-88.016903,-139.09684)" id="layer1">
    <g id="g3374" transform="matrix(0.35277777,0,0,-0.35277777,-347.31299,176.81224)">
      <g clip-path="url(#clipPath3380)" id="g3376">
        <g clip-path="url(#clipPath3386)" id="g3382">
          <path id="path3388" style="fill:#253965;fill-opacity:1;fill-rule:nonzero;stroke:none" d="m 1229.006,111.9098 h 29.578 V 85.28165 h -29.578 z"/>
        </g>
      </g>
    </g>
  </g>
</svg>